#!OML:ASF X:\für Bonn\!DataBase\2005_08_10_Bjorn_Final\c3d\bjorn.ASF
:FULLY-SPECIFIED
:DEGREES
94
root 1.64502 19.2829 3.21496 -221.272 -44.5326 -154.5
lowerback 31.3446 -4.8002 -3.52383
upperback 22.5964 -12.8907 -0.15337
thorax 9.67401 -9.49813 3.76755
lowerneck 0.84087 -4.1595 0.565602
upperneck 8.29872 -9.6747 22.4755
head 3.4154 -4.99187 6.48923
rclavicle -6.36111e-015 1.78111e-013
rhumerus -35.9799 -3.5111 -85.579
rradius 35.675
rwrist 12.749
rhand -7.20951 11.0808
rfingers 7.12502
rthumb 18.6693 -18.0434
lclavicle -6.36111e-015 1.78111e-013
lhumerus 62.5638 -20.5538 77.519
lradius 113.579
lwrist 9.42425
lhand -38.4471 -23.1688
lfingers 7.12502
lthumb -11.4705 6.49743
rfemur -89.0794 -14.1634 13.4402
rtibia 130.603
rfoot 3.38841 22.1266
rtoes -23.525
lfemur 14.8736 -18.8313 -7.60546
ltibia 20.819
lfoot -6.02446 -13.8664
ltoes -0.594159
95
root 1.65216 19.2512 3.22 -221.469 -44.3246 -154.396
lowerback 31.6309 -4.70191 -3.45686
upperback 22.7065 -12.8434 -0.101191
thorax 9.68995 -9.51136 3.79728
lowerneck 0.944291 -4.14497 0.605019
upperneck 8.0632 -9.65949 22.7424
head 3.33724 -5.01674 6.57429
rclavicle 1.27222e-014 6.36111e-014
rhumerus -36.0791 -3.48602 -85.3053
rradius 35.4703
rwrist 12.8803
rhand -7.23132 11.0988
rfingers 7.12502
rthumb 18.6483 -18.0274
lclavicle 1.27222e-014 6.36111e-014
lhumerus 63.0357 -20.61 77.5214
lradius 113.769
lwrist 9.78063
lhand -38.5622 -23.0698
lfingers 7.12502
lthumb -11.5814 6.59022
rfemur -89.2927 -13.8399 13.4484
rtibia 130.503
rfoot 3.94063 21.8752
rtoes -22.8211
lfemur 14.5261 -18.97 -7.54129
ltibia 21.8492
lfoot -6.53992 -13.6876
ltoes -0.540063
96
root 1.65797 19.2181 3.22518 -221.607 -44.1236 -154.324
lowerback 31.8715 -4.58761 -3.41542
upperback 22.8271 -12.7826 -0.0438481
thorax 9.74125 -9.52205 3.83377
lowerneck 0.932552 -4.14846 0.785317
upperneck 7.8518 -9.66712 22.9016
head 3.27929 -5.04041 6.59488
rclavicle -8.42847e-014 1.01778e-013
rhumerus -36.1004 -3.41013 -85.0648
rradius 35.2073
rwrist 12.8848
rhand -7.24259 11.1496
rfingers 7.12502
rthumb 18.6375 -17.9776
lclavicle -8.42847e-014 1.01778e-013
lhumerus 63.5002 -20.7088 77.5293
lradius 113.947
lwrist 10.0294
lhand -38.6624 -23.0232
lfingers 7.12502
lthumb -11.6781 6.63132
rfemur -89.5132 -13.5362 13.4407
rtibia 130.411
rfoot 4.63625 21.6329
rtoes -21.8038
lfemur 14.1471 -19.0643 -7.47423
ltibia 22.8658
lfoot -7.08181 -13.5229
ltoes -0.701417
97
root 1.6633 19.1849 3.23022 -221.702 -43.9076 -154.311
lowerback 32.1063 -4.46303 -3.41543
upperback 22.9392 -12.7151 -0.00556584
thorax 9.78709 -9.53106 3.87015
lowerneck 0.847438 -4.14631 1.00948
upperneck 7.72267 -9.68421 22.9956
head 3.25531 -5.05747 6.58337
rclavicle -1.27222e-014 3.49861e-014
rhumerus -36.0999 -3.33631 -84.8383
rradius 34.9129
rwrist 12.9112
rhand -7.25367 11.1284
rfingers 7.12502
rthumb 18.6268 -17.9998
lclavicle -1.27222e-014 3.49861e-014
lhumerus 63.9434 -20.7818 77.5119
lradius 114.087
lwrist 10.2535
lhand -38.8086 -22.9864
lfingers 7.12502
lthumb -11.8191 6.66012
rfemur -89.7369 -13.2485 13.5018
rtibia 130.397
rfoot 5.04133 21.4733
rtoes -21.8942
lfemur 13.7888 -19.0921 -7.42385
ltibia 23.8596
lfoot -7.57962 -13.4059
ltoes -0.563473
98
root 1.66782 19.1515 3.23541 -221.795 -43.6794 -154.299
lowerback 32.328 -4.32433 -3.40072
upperback 23.0629 -12.6322 0.0442408
thorax 9.85085 -9.53418 3.90408
lowerneck 0.681591 -4.17135 1.20896
upperneck 7.57923 -9.74879 23.1348
head 3.25059 -5.09416 6.5853
rclavicle 6.36111e-015 6.99722e-014
rhumerus -36.0381 -3.28359 -84.6149
rradius 34.588
rwrist 12.8837
rhand -7.22125 11.1445
rfingers 7.12502
rthumb 18.658 -17.9807
lclavicle 6.36111e-015 6.99722e-014
lhumerus 64.4344 -20.8964 77.4967
lradius 114.177
lwrist 10.3799
lhand -38.9366 -22.9208
lfingers 7.12502
lthumb -11.9425 6.71856
rfemur -89.9607 -12.9933 13.609
rtibia 130.432
rfoot 5.35564 21.382
rtoes -22.1421
lfemur 13.4212 -19.046 -7.33499
ltibia 24.842
lfoot -8.07357 -13.3543
ltoes -0.655973
99
root 1.67152 19.117 3.24084 -221.849 -43.4228 -154.301
lowerback 32.5323 -4.19236 -3.40883
upperback 23.1581 -12.5547 0.111561
thorax 9.89634 -9.54029 3.97062
lowerneck 0.498401 -4.18562 1.33959
upperneck 7.49868 -9.80896 23.2586
head 3.26888 -5.12299 6.5932
rclavicle -4.29375e-014 -9.54166e-014
rhumerus -35.9903 -3.15167 -84.3684
rradius 34.3405
rwrist 12.807
rhand -7.12361 11.0197
rfingers 7.12502
rthumb 18.7519 -18.0964
lclavicle -4.29375e-014 -9.54166e-014
lhumerus 64.8708 -20.975 77.5393
lradius 114.254
lwrist 10.4738
lhand -39.09 -22.906
lfingers 7.12502
lthumb -12.0904 6.72466
rfemur -90.1594 -12.7084 13.7398
rtibia 130.453
rfoot 5.77641 21.3336
rtoes -22.0808
lfemur 13.0445 -18.9792 -7.23759
ltibia 25.812
lfoot -8.58428 -13.2672
ltoes -0.822809
100
root 1.67443 19.0813 3.24592 -221.875 -43.1662 -154.348
lowerback 32.7255 -4.04366 -3.42874
upperback 23.2556 -12.4595 0.175322
thorax 9.94793 -9.53889 4.03408
lowerneck 0.280944 -4.21354 1.4176
upperneck 7.41336 -9.89826 23.4376
head 3.30046 -5.16534 6.62504
rclavicle -2.70347e-014 9.54166e-015
rhumerus -35.9683 -3.05836 -84.1247
rradius 34.1733
rwrist 12.7216
rhand -6.98756 10.8981
rfingers 7.12502
rthumb 18.8828 -18.2054
lclavicle -2.70347e-014 9.54166e-015
lhumerus 65.3094 -21.1025 77.5765
lradius 114.331
lwrist 10.4857
lhand -39.2628 -22.8848
lfingers 7.12502
lthumb -12.257 6.73598
rfemur -90.3229 -12.4513 13.8483
rtibia 130.477
rfoot 6.31194 21.3835
rtoes -21.6863
lfemur 12.676 -18.8758 -7.1587
ltibia 26.78
lfoot -9.09252 -13.1962
ltoes -0.900193
101
root 1.67622 19.0461 3.25021 -221.813 -42.9342 -154.396
lowerback 32.8015 -3.91848 -3.46252
upperback 23.3601 -12.3879 0.2404
thorax 10.0579 -9.5476 4.09337
lowerneck -0.0163518 -4.25037 1.4842
upperneck 7.34579 -9.99775 23.5751
head 3.35135 -5.20373 6.64141
rclavicle 4.77083e-014 -5.08889e-014
rhumerus -35.8321 -3.03879 -83.8588
rradius 33.9647
rwrist 12.7213
rhand -6.79778 10.7536
rfingers 7.12502
rthumb 19.0653 -18.332
lclavicle 4.77083e-014 -5.08889e-014
lhumerus 65.7546 -21.2067 77.6112
lradius 114.411
lwrist 10.41
lhand -39.4175 -22.787
lfingers 7.12502
lthumb -12.4062 6.82484
rfemur -90.5528 -12.3335 13.9874
rtibia 130.504
rfoot 6.9135 21.5201
rtoes -21.1383
lfemur 12.2092 -18.7753 -7.07379
ltibia 27.7502
lfoot -9.62013 -13.1157
ltoes -1.24179
